<svg width="800" height="600" viewBox="0 0 800 600" xmlns="http://www.w3.org/2000/svg">
  <rect width="800" height="600" fill="#1a1a1a"/>
  
  <!-- Header -->
  <rect x="20" y="20" width="760" height="60" fill="#2a2a2a" rx="8"/>
  <text x="40" y="60" fill="#ffffff" font-family="Arial, sans-serif" font-size="24" font-weight="bold">📊 Report e Analytics</text>
  
  <!-- Time selector -->
  <rect x="600" y="30" width="160" height="40" fill="#4c1d95" rx="8"/>
  <text x="620" y="55" fill="#ffffff" font-family="Arial, sans-serif" font-size="14">📅 Ultimi 30 giorni</text>
  
  <!-- KPI Row -->
  <rect x="20" y="100" width="180" height="80" fill="#2a2a2a" rx="8"/>
  <text x="40" y="125" fill="#888888" font-family="Arial, sans-serif" font-size="14">Volume Movimenti</text>
  <text x="40" y="155" fill="#ffffff" font-family="Arial, sans-serif" font-size="28" font-weight="bold">12,847</text>
  <text x="40" y="170" fill="#059669" font-family="Arial, sans-serif" font-size="12">+12% vs mese prec.</text>
  
  <rect x="220" y="100" width="180" height="80" fill="#2a2a2a" rx="8"/>
  <text x="240" y="125" fill="#888888" font-family="Arial, sans-serif" font-size="14">Efficienza Picking</text>
  <text x="240" y="155" fill="#ffffff" font-family="Arial, sans-serif" font-size="28" font-weight="bold">94.2%</text>
  <text x="240" y="170" fill="#059669" font-family="Arial, sans-serif" font-size="12">+3.1% vs mese prec.</text>
  
  <rect x="420" y="100" width="180" height="80" fill="#2a2a2a" rx="8"/>
  <text x="440" y="125" fill="#888888" font-family="Arial, sans-serif" font-size="14">Ordini Processati</text>
  <text x="440" y="155" fill="#ffffff" font-family="Arial, sans-serif" font-size="28" font-weight="bold">3,241</text>
  <text x="440" y="170" fill="#dc2626" font-family="Arial, sans-serif" font-size="12">-2.3% vs mese prec.</text>
  
  <rect x="620" y="100" width="160" height="80" fill="#2a2a2a" rx="8"/>
  <text x="640" y="125" fill="#888888" font-family="Arial, sans-serif" font-size="14">Valore Gestito</text>
  <text x="640" y="155" fill="#ffffff" font-family="Arial, sans-serif" font-size="28" font-weight="bold">€1.2M</text>
  <text x="640" y="170" fill="#059669" font-family="Arial, sans-serif" font-size="12">+8.5% vs mese prec.</text>
  
  <!-- Charts Row -->
  <rect x="20" y="200" width="380" height="180" fill="#2a2a2a" rx="8"/>
  <text x="40" y="230" fill="#ffffff" font-family="Arial, sans-serif" font-size="18">Trend Movimenti Giornalieri</text>
  
  <!-- Line chart simulation -->
  <polyline points="60,320 100,300 140,280 180,290 220,260 260,250 300,240 340,220 380,210" 
            stroke="#4c1d95" stroke-width="3" fill="none"/>
  <polyline points="60,340 100,330 140,320 180,310 220,295 260,285 300,275 340,260 380,245" 
            stroke="#059669" stroke-width="3" fill="none"/>
  
  <!-- Legend -->
  <rect x="60" y="350" width="15" height="3" fill="#4c1d95"/>
  <text x="80" y="358" fill="#888888" font-family="Arial, sans-serif" font-size="12">Inbound</text>
  <rect x="140" y="350" width="15" height="3" fill="#059669"/>
  <text x="160" y="358" fill="#888888" font-family="Arial, sans-serif" font-size="12">Outbound</text>
  
  <!-- Pie chart -->
  <rect x="420" y="200" width="360" height="180" fill="#2a2a2a" rx="8"/>
  <text x="440" y="230" fill="#ffffff" font-family="Arial, sans-serif" font-size="18">Distribuzione per Committente</text>
  
  <!-- Pie chart simulation -->
  <circle cx="520" cy="310" r="50" fill="none" stroke="#374151" stroke-width="100"/>
  <circle cx="520" cy="310" r="50" fill="none" stroke="#4c1d95" stroke-width="100" 
          stroke-dasharray="125 315" stroke-dashoffset="0"/>
  <circle cx="520" cy="310" r="50" fill="none" stroke="#059669" stroke-width="100" 
          stroke-dasharray="94 315" stroke-dashoffset="-125"/>
  <circle cx="520" cy="310" r="50" fill="none" stroke="#dc2626" stroke-width="100" 
          stroke-dasharray="63 315" stroke-dashoffset="-219"/>
  <circle cx="520" cy="310" r="50" fill="none" stroke="#f59e0b" stroke-width="100" 
          stroke-dasharray="33 315" stroke-dashoffset="-282"/>
  
  <!-- Pie legend -->
  <rect x="600" y="250" width="15" height="15" fill="#4c1d95"/>
  <text x="625" y="262" fill="#ffffff" font-family="Arial, sans-serif" font-size="13">LogiCorp (40%)</text>
  
  <rect x="600" y="275" width="15" height="15" fill="#059669"/>
  <text x="625" y="287" fill="#ffffff" font-family="Arial, sans-serif" font-size="13">E-Com Plus (30%)</text>
  
  <rect x="600" y="300" width="15" height="15" fill="#dc2626"/>
  <text x="625" y="312" fill="#ffffff" font-family="Arial, sans-serif" font-size="13">3PL Solutions (20%)</text>
  
  <rect x="600" y="325" width="15" height="15" fill="#f59e0b"/>
  <text x="625" y="337" fill="#ffffff" font-family="Arial, sans-serif" font-size="13">Altri (10%)</text>
  
  <!-- Performance indicators -->
  <rect x="20" y="400" width="760" height="180" fill="#2a2a2a" rx="8"/>
  <text x="40" y="430" fill="#ffffff" font-family="Arial, sans-serif" font-size="18">Performance Indicatori</text>
  
  <!-- Indicator 1 -->
  <text x="60" y="460" fill="#888888" font-family="Arial, sans-serif" font-size="14">Tempo Medio Picking</text>
  <rect x="60" y="470" width="300" height="8" fill="#374151" rx="4"/>
  <rect x="60" y="470" width="240" height="8" fill="#059669" rx="4"/>
  <text x="370" y="478" fill="#ffffff" font-family="Arial, sans-serif" font-size="13">2.3 min (Target: 3.0)</text>
  
  <!-- Indicator 2 -->
  <text x="450" y="460" fill="#888888" font-family="Arial, sans-serif" font-size="14">Accuratezza Ordini</text>
  <rect x="450" y="470" width="300" height="8" fill="#374151" rx="4"/>
  <rect x="450" y="470" width="285" height="8" fill="#4c1d95" rx="4"/>
  <text x="760" y="478" fill="#ffffff" font-family="Arial, sans-serif" font-size="13">99.2%</text>
  
  <!-- Indicator 3 -->
  <text x="60" y="510" fill="#888888" font-family="Arial, sans-serif" font-size="14">Utilizzo Spazio</text>
  <rect x="60" y="520" width="300" height="8" fill="#374151" rx="4"/>
  <rect x="60" y="520" width="210" height="8" fill="#f59e0b" rx="4"/>
  <text x="370" y="528" fill="#ffffff" font-family="Arial, sans-serif" font-size="13">70% (Ottimale: 75-80%)</text>
  
  <!-- Indicator 4 -->
  <text x="450" y="510" fill="#888888" font-family="Arial, sans-serif" font-size="14">Rotazione Stock</text>
  <rect x="450" y="520" width="300" height="8" fill="#374151" rx="4"/>
  <rect x="450" y="520" width="195" height="8" fill="#7c3aed" rx="4"/>
  <text x="760" y="528" fill="#ffffff" font-family="Arial, sans-serif" font-size="13">8.2x/anno</text>
  
  <!-- Bottom stats -->
  <text x="60" y="560" fill="#888888" font-family="Arial, sans-serif" font-size="12">Ultimo aggiornamento: 16/09/2024 16:25</text>
  <text x="650" y="560" fill="#888888" font-family="Arial, sans-serif" font-size="12">Dati tempo reale • Auto-refresh: ON</text>
</svg>