<svg width="800" height="600" viewBox="0 0 800 600" xmlns="http://www.w3.org/2000/svg">
  <rect width="800" height="600" fill="#1a1a1a"/>
  
  <!-- Header -->
  <rect x="20" y="20" width="760" height="60" fill="#2a2a2a" rx="8"/>
  <text x="40" y="60" fill="#ffffff" font-family="Arial, sans-serif" font-size="24" font-weight="bold">📦 Gestione Prodotti</text>
  
  <!-- Search bar -->
  <rect x="20" y="100" width="600" height="40" fill="#2a2a2a" rx="8"/>
  <text x="35" y="125" fill="#888888" font-family="Arial, sans-serif" font-size="14">🔍 Cerca prodotti...</text>
  
  <!-- Add button -->
  <rect x="640" y="100" width="140" height="40" fill="#059669" rx="8"/>
  <text x="670" y="125" fill="#ffffff" font-family="Arial, sans-serif" font-size="14">+ Nuovo Prodotto</text>
  
  <!-- Table header -->
  <rect x="20" y="160" width="760" height="40" fill="#374151" rx="8"/>
  <text x="40" y="185" fill="#ffffff" font-family="Arial, sans-serif" font-size="14" font-weight="bold">Codice</text>
  <text x="180" y="185" fill="#ffffff" font-family="Arial, sans-serif" font-size="14" font-weight="bold">Descrizione</text>
  <text x="450" y="185" fill="#ffffff" font-family="Arial, sans-serif" font-size="14" font-weight="bold">Categoria</text>
  <text x="580" y="185" fill="#ffffff" font-family="Arial, sans-serif" font-size="14" font-weight="bold">Scorta</text>
  <text x="680" y="185" fill="#ffffff" font-family="Arial, sans-serif" font-size="14" font-weight="bold">Azioni</text>
  
  <!-- Product rows -->
  <rect x="20" y="200" width="760" height="50" fill="#2a2a2a"/>
  <text x="40" y="230" fill="#ffffff" font-family="Arial, sans-serif" font-size="13">PRD001</text>
  <text x="180" y="230" fill="#ffffff" font-family="Arial, sans-serif" font-size="13">Laptop Dell Latitude 5520</text>
  <text x="450" y="230" fill="#888888" font-family="Arial, sans-serif" font-size="13">Elettronica</text>
  <text x="580" y="230" fill="#059669" font-family="Arial, sans-serif" font-size="13">45 pz</text>
  <rect x="680" y="215" width="60" height="20" fill="#4c1d95" rx="4"/>
  <text x="695" y="228" fill="#ffffff" font-family="Arial, sans-serif" font-size="10">Modifica</text>
  
  <rect x="20" y="250" width="760" height="50" fill="#1f1f1f"/>
  <text x="40" y="280" fill="#ffffff" font-family="Arial, sans-serif" font-size="13">PRD002</text>
  <text x="180" y="280" fill="#ffffff" font-family="Arial, sans-serif" font-size="13">Mouse Wireless Logitech</text>
  <text x="450" y="280" fill="#888888" font-family="Arial, sans-serif" font-size="13">Accessori</text>
  <text x="580" y="280" fill="#dc2626" font-family="Arial, sans-serif" font-size="13">2 pz</text>
  <rect x="680" y="265" width="60" height="20" fill="#4c1d95" rx="4"/>
  <text x="695" y="278" fill="#ffffff" font-family="Arial, sans-serif" font-size="10">Modifica</text>
  
  <rect x="20" y="300" width="760" height="50" fill="#2a2a2a"/>
  <text x="40" y="330" fill="#ffffff" font-family="Arial, sans-serif" font-size="13">PRD003</text>
  <text x="180" y="330" fill="#ffffff" font-family="Arial, sans-serif" font-size="13">Monitor Samsung 24"</text>
  <text x="450" y="330" fill="#888888" font-family="Arial, sans-serif" font-size="13">Elettronica</text>
  <text x="580" y="330" fill="#f59e0b" font-family="Arial, sans-serif" font-size="13">12 pz</text>
  <rect x="680" y="315" width="60" height="20" fill="#4c1d95" rx="4"/>
  <text x="695" y="328" fill="#ffffff" font-family="Arial, sans-serif" font-size="10">Modifica</text>
  
  <rect x="20" y="350" width="760" height="50" fill="#1f1f1f"/>
  <text x="40" y="380" fill="#ffffff" font-family="Arial, sans-serif" font-size="13">PRD004</text>
  <text x="180" y="380" fill="#ffffff" font-family="Arial, sans-serif" font-size="13">Tastiera Meccanica RGB</text>
  <text x="450" y="380" fill="#888888" font-family="Arial, sans-serif" font-size="13">Gaming</text>
  <text x="580" y="380" fill="#059669" font-family="Arial, sans-serif" font-size="13">28 pz</text>
  <rect x="680" y="365" width="60" height="20" fill="#4c1d95" rx="4"/>
  <text x="695" y="378" fill="#ffffff" font-family="Arial, sans-serif" font-size="10">Modifica</text>
  
  <!-- Statistics panel -->
  <rect x="20" y="420" width="760" height="160" fill="#2a2a2a" rx="8"/>
  <text x="40" y="450" fill="#ffffff" font-family="Arial, sans-serif" font-size="18">Statistiche Prodotti</text>
  
  <rect x="50" y="470" width="150" height="80" fill="#374151" rx="8"/>
  <text x="70" y="495" fill="#888888" font-family="Arial, sans-serif" font-size="12">Totale Prodotti</text>
  <text x="70" y="520" fill="#ffffff" font-family="Arial, sans-serif" font-size="28" font-weight="bold">1,247</text>
  
  <rect x="220" y="470" width="150" height="80" fill="#374151" rx="8"/>
  <text x="240" y="495" fill="#888888" font-family="Arial, sans-serif" font-size="12">Sotto Scorta</text>
  <text x="240" y="520" fill="#dc2626" font-family="Arial, sans-serif" font-size="28" font-weight="bold">23</text>
  
  <rect x="390" y="470" width="150" height="80" fill="#374151" rx="8"/>
  <text x="410" y="495" fill="#888888" font-family="Arial, sans-serif" font-size="12">Categorie</text>
  <text x="410" y="520" fill="#7c3aed" font-family="Arial, sans-serif" font-size="28" font-weight="bold">18</text>
  
  <rect x="560" y="470" width="150" height="80" fill="#374151" rx="8"/>
  <text x="580" y="495" fill="#888888" font-family="Arial, sans-serif" font-size="12">Valore Stock</text>
  <text x="580" y="520" fill="#059669" font-family="Arial, sans-serif" font-size="28" font-weight="bold">€89K</text>
</svg>