<svg width="800" height="600" viewBox="0 0 800 600" xmlns="http://www.w3.org/2000/svg">
  <rect width="800" height="600" fill="#1a1a1a"/>
  
  <!-- Header -->
  <rect x="20" y="20" width="760" height="60" fill="#2a2a2a" rx="8"/>
  <text x="40" y="60" fill="#ffffff" font-family="Arial, sans-serif" font-size="24" font-weight="bold">📊 Dashboard Magazzino</text>
  
  <!-- KPI Cards -->
  <rect x="20" y="100" width="180" height="120" fill="#4c1d95" rx="8"/>
  <text x="40" y="130" fill="#ffffff" font-family="Arial, sans-serif" font-size="16">Ordini Oggi</text>
  <text x="40" y="180" fill="#ffffff" font-family="Arial, sans-serif" font-size="36" font-weight="bold">127</text>
  
  <rect x="220" y="100" width="180" height="120" fill="#059669" rx="8"/>
  <text x="240" y="130" fill="#ffffff" font-family="Arial, sans-serif" font-size="16">Movimenti</text>
  <text x="240" y="180" fill="#ffffff" font-family="Arial, sans-serif" font-size="36" font-weight="bold">1,543</text>
  
  <rect x="420" y="100" width="180" height="120" fill="#dc2626" rx="8"/>
  <text x="440" y="130" fill="#ffffff" font-family="Arial, sans-serif" font-size="16">Alert Critici</text>
  <text x="440" y="180" fill="#ffffff" font-family="Arial, sans-serif" font-size="36" font-weight="bold">3</text>
  
  <rect x="620" y="100" width="160" height="120" fill="#7c3aed" rx="8"/>
  <text x="640" y="130" fill="#ffffff" font-family="Arial, sans-serif" font-size="16">Efficienza</text>
  <text x="640" y="180" fill="#ffffff" font-family="Arial, sans-serif" font-size="36" font-weight="bold">94%</text>
  
  <!-- Charts -->
  <rect x="20" y="240" width="370" height="320" fill="#2a2a2a" rx="8"/>
  <text x="40" y="270" fill="#ffffff" font-family="Arial, sans-serif" font-size="18">Movimenti Settimanali</text>
  
  <!-- Bar chart simulation -->
  <rect x="60" y="320" width="30" height="80" fill="#4c1d95"/>
  <rect x="110" y="280" width="30" height="120" fill="#4c1d95"/>
  <rect x="160" y="300" width="30" height="100" fill="#4c1d95"/>
  <rect x="210" y="260" width="30" height="140" fill="#4c1d95"/>
  <rect x="260" y="290" width="30" height="110" fill="#4c1d95"/>
  <rect x="310" y="270" width="30" height="130" fill="#4c1d95"/>
  
  <!-- Activity list -->
  <rect x="410" y="240" width="370" height="320" fill="#2a2a2a" rx="8"/>
  <text x="430" y="270" fill="#ffffff" font-family="Arial, sans-serif" font-size="18">Attività Recenti</text>
  
  <circle cx="450" cy="310" r="8" fill="#059669"/>
  <text x="470" y="315" fill="#ffffff" font-family="Arial, sans-serif" font-size="14">Carico merce ricevuto</text>
  <text x="680" y="315" fill="#888888" font-family="Arial, sans-serif" font-size="12">10:30</text>
  
  <circle cx="450" cy="340" r="8" fill="#dc2626"/>
  <text x="470" y="345" fill="#ffffff" font-family="Arial, sans-serif" font-size="14">Alert scorta minima</text>
  <text x="680" y="345" fill="#888888" font-family="Arial, sans-serif" font-size="12">10:15</text>
  
  <circle cx="450" cy="370" r="8" fill="#7c3aed"/>
  <text x="470" y="375" fill="#ffffff" font-family="Arial, sans-serif" font-size="14">Ordine completato</text>
  <text x="680" y="375" fill="#888888" font-family="Arial, sans-serif" font-size="12">09:45</text>
</svg>